<?xml version="1.0" encoding="utf-8"?>
<!-- Generator: Adobe Illustrator 15.1.0, SVG Export Plug-In . SVG Version: 6.00 Build 0)  -->
<!DOCTYPE svg PUBLIC "-//W3C//DTD SVG 1.1//EN" "http://www.w3.org/Graphics/SVG/1.1/DTD/svg11.dtd">
<svg version="1.1" id="Layer_1" xmlns="http://www.w3.org/2000/svg" xmlns:xlink="http://www.w3.org/1999/xlink" x="0px" y="0px"
	 width="35px" height="35px" viewBox="0 0 35 35" enable-background="new 0 0 35 35" xml:space="preserve">
<g>
	<path fill="#FFFFFF" d="M22.089,5.735H10.247c-0.795,0-1.443,0.648-1.443,1.443V27.82c0,0.797,0.647,1.443,1.443,1.443h14.506
		c0.796,0,1.442-0.646,1.442-1.443V10.196L22.089,5.735z M22.43,7.894l1.8,1.956h-1.8V7.894z M24.983,27.82
		c0,0.128-0.104,0.232-0.231,0.232H10.247c-0.128,0-0.231-0.104-0.231-0.232V7.178c0-0.127,0.103-0.231,0.231-0.231h10.971v3.509
		c0,0.334,0.271,0.605,0.606,0.605h3.159V27.82z M12.153,12.179h10.289c0.251,0,0.454,0.203,0.454,0.454
		c0,0.25-0.203,0.454-0.454,0.454H12.153c-0.25,0-0.454-0.203-0.454-0.454C11.699,12.382,11.903,12.179,12.153,12.179z
		 M22.896,15.684c0,0.25-0.203,0.454-0.454,0.454H12.153c-0.25,0-0.454-0.203-0.454-0.454c0-0.25,0.204-0.454,0.454-0.454h10.289
		C22.693,15.229,22.896,15.433,22.896,15.684z M22.896,18.635c0,0.25-0.203,0.453-0.454,0.453H12.153
		c-0.25,0-0.454-0.203-0.454-0.453c0-0.251,0.204-0.454,0.454-0.454h10.289C22.693,18.181,22.896,18.384,22.896,18.635z
		 M22.896,21.635c0,0.251-0.203,0.454-0.454,0.454H12.153c-0.25,0-0.454-0.203-0.454-0.454c0-0.25,0.204-0.453,0.454-0.453h10.289
		C22.693,21.182,22.896,21.385,22.896,21.635z"/>
</g>
</svg>
